<svg xmlns="http://www.w3.org/2000/svg" viewBox="0 0 250 250"><defs><style>.cls-1,.cls-2,.cls-3{fill:none;}.cls-1{stroke:#909fc4;opacity:0.5;isolation:isolate;}.cls-1,.cls-3{stroke-miterlimit:10;}.cls-2{stroke:#57647b;stroke-linecap:round;stroke-linejoin:round;}.cls-3{stroke:#8f9fc4;}.cls-4{fill:#2c467e;}.cls-5{fill:#4a66a4;}
	
.fire{
	transform-origin: 38% 86.8%;
	animation: fire 4s ease-in-out 0s infinite;
}
@keyframes fire{
	30%{transform: translate(-2.8px, 3.7px) scale(1.04)}
}

.wing{
	transform-origin: center;
	animation: wing 4s ease-in-out 0s infinite;
}
@keyframes wing{
	30%{transform: scaleY(1.04)}
}
.wing .wraper{
	transform-origin: center;
	animation: wraper 4s ease-in-out 0s infinite;
}
@keyframes wraper{
	30%{transform: rotate(1deg)}
	60%{transform: rotate(-1deg)}
}


.rocket{
	transform-origin: center;
	animation: rocket 2s ease-in-out 0s infinite;
}
@keyframes rocket{
	30%{transform: rotate(0.5deg)}
	70%{transform: rotate(-0.5deg)}
}


.circle{
	transform-origin: center;
	animation: circle 8s ease 0s infinite;
}
@keyframes circle{
	30%{transform: rotate(1deg)}
	60%{transform: rotate(-1deg)}
}


.star{
	transform-origin: center;
	animation: star 8s ease 0s infinite;
}
@keyframes star{
	30%{transform: rotate(-1deg)}
	60%{transform: rotate(1deg)}
}
		
</style></defs><title>t</title>
<g class="rocket">
	<path class="cls-1" d="M190.12,85.32a79.4,79.4,0,0,1-38.1-26"/>
	<circle class="cls-1" cx="154.49" cy="96.63" r="12.14" transform="translate(-12.47 169.62) rotate(-55.64)"/>
	<path class="cls-2" d="M98.1,146.42A76.48,76.48,0,0,1,111,152.8"/>
	<path class="cls-3" d="M114.55,162.12a87.13,87.13,0,0,1,10.12,8.82,155.14,155.14,0,0,0,45.94-44.27,152.75,152.75,0,0,0,27-81.83A7.65,7.65,0,0,0,187,37.59,152.75,152.75,0,0,0,120.58,92.5,155.12,155.12,0,0,0,96,151.58,87.2,87.2,0,0,1,108.49,158"/>
	<polyline class="cls-1" points="108.35 170.05 115.93 175.23 121.64 169.83"/>
	<polyline class="cls-2" points="98.19 153.8 95.23 161.08 103.67 166.85"/>
	<circle class="cls-4" cx="154.49" cy="96.63" r="8.26" transform="translate(-12.47 169.62) rotate(-55.64)"/>
	<path class="cls-5" d="M159.14,89.8l-.14-.09c.09.33.18.67.25,1a11.56,11.56,0,0,1-8.37,13.3,8.25,8.25,0,0,0,8.27-14.23Z"/>
	
	<g class="fire">
		<path class="cls-4" d="M103.31,169.54l-3.53-2.41a1,1,0,0,0-1.26.07,33.56,33.56,0,0,0-5.42,6.22c-4.7,6.88-6.43,14.68-5.29,21.2,6.49-1.31,13.13-5.74,17.84-12.63a33.56,33.56,0,0,0,3.79-7.3,1,1,0,0,0-.39-1.2l-3.39-2.31"/>
		<path class="cls-1" d="M103.08,168.27l-8-5.48a36.78,36.78,0,0,0-14.43,41.83A36.78,36.78,0,0,0,114.38,176l-7.46-5.1"/>
		<path class="cls-5" d="M102.81,173q1.22-1.08,2.46-2.08l-2-1.34-3.53-2.41a1,1,0,0,0-1.26.07,33.56,33.56,0,0,0-5.38,6.22c-4.64,6.78-6.37,14.45-5.33,20.92C89.07,188.35,94.6,180.21,102.81,173Z"/>
	</g>
	<g class="wing">
		<g class="wraper">
			<path class="cls-1" d="M110,106.76l-7.79-1.39a.88.88,0,0,0-.89.39L80.6,138.33a.88.88,0,0,0,1.29,1.16L103,122.68"/>
			<path class="cls-1" d="M161.07,141.65l4.11,6.72a.88.88,0,0,1,0,1l-22.85,31.16a.88.88,0,0,1-1.55-.78l8-25.81"/>
		</g>
		<path class="cls-1" d="M104.7,168.52l22.9-46.26a.79.79,0,0,1,.63-.43l9.48-1.07a.92.92,0,0,1,1,.72l1.85,8.78a.79.79,0,0,1-.18.69l-31.52,35.47-2.72,3.06a.89.89,0,0,1-1.44-1Z"/>
	</g>	
</g>
	
<g class="star">
	<path class="cls-1" d="M172.85,179a173.29,173.29,0,0,1,62.05,31.3"/>
	<path class="cls-1" d="M15.1,210.71a173.34,173.34,0,0,1,60.36-31.1"/>
	<path class="cls-4" d="M180.32,145l.26,1.48a1.86,1.86,0,0,0,1.51,1.51l1.48.26-1.48.26a1.86,1.86,0,0,0-1.51,1.51l-.26,1.48-.26-1.48a1.86,1.86,0,0,0-1.51-1.51l-1.48-.26,1.48-.26a1.86,1.86,0,0,0,1.51-1.51Z"/>
	<path class="cls-4" d="M219.69,106l-.91,1.31a2,2,0,0,0,0,2.25l.91,1.31-1.31-.91a2,2,0,0,0-2.25,0l-1.31.91.91-1.31a2,2,0,0,0,0-2.25l-.9-1.31,1.31.91a2,2,0,0,0,2.25,0Z"/>
	<path class="cls-4" d="M22.42,148.41l-.91,1.31a2,2,0,0,0,0,2.25l.91,1.31-1.31-.91a2,2,0,0,0-2.25,0l-1.31.91.91-1.31a2,2,0,0,0,0-2.25l-.91-1.31,1.31.91a2,2,0,0,0,2.25,0Z"/>
	<path class="cls-4" d="M97.22,45.16l-.91,1.31a2,2,0,0,0,0,2.25L97.22,50l-1.31-.91a2,2,0,0,0-2.25,0L92.35,50l.91-1.31a2,2,0,0,0,0-2.25l-.91-1.31,1.31.91a2,2,0,0,0,2.25,0Z"/>
	<path class="cls-4" d="M121.44,51.34l.28,1.57a2,2,0,0,0,1.6,1.6l1.57.28-1.57.28a2,2,0,0,0-1.6,1.6l-.28,1.57-.28-1.57a2,2,0,0,0-1.6-1.6L118,54.79l1.57-.28a2,2,0,0,0,1.6-1.6Z"/>
</g>
<g class="circle">
		<circle class="cls-4" cx="245.72" cy="145.34" r="1"/>
		<circle class="cls-4" cx="78.13" cy="113.85" r="1.15"/>
		<circle class="cls-4" cx="68.47" cy="50.59" r="0.75"/>
		<circle class="cls-4" cx="199.63" cy="10.62" r="0.62"/>
		<circle class="cls-4" cx="106.12" cy="70.34" r="0.56"/>
		<circle class="cls-4" cx="221.12" cy="34.85" r="1.13"/>
		<circle class="cls-4" cx="39.65" cy="147.28" r="0.94"/><circle class="cls-4" cx="204.9" cy="151.4" r="0.56"/>
</g>
	
<path class="cls-2" d="M118.66,158.1a81.39,81.39,0,0,1,9.82,9.15"/>
<path class="cls-4" d="M138,25.33l.38,2.17a2.72,2.72,0,0,0,2.2,2.2l2.17.38-2.17.38a2.72,2.72,0,0,0-2.2,2.2L138,34.85l-.38-2.17a2.72,2.72,0,0,0-2.2-2.2l-2.17-.38,2.17-.38a2.72,2.72,0,0,0,2.2-2.2Z"/>
<path class="cls-4" d="M200.14,106a1.63,1.63,0,1,1,1.63-1.63h0A1.63,1.63,0,0,1,200.14,106Zm0-2.25a.63.63,0,1,0,.63.63.63.63,0,0,0-.63-.63Z"/>
<path class="cls-4" d="M181.19,126.21l.32,1.8a2.26,2.26,0,0,0,1.83,1.83l1.8.32-1.8.32a2.26,2.26,0,0,0-1.83,1.83l-.32,1.8-.32-1.8a2.26,2.26,0,0,0-1.83-1.83l-1.8-.32,1.8-.32a2.26,2.26,0,0,0,1.83-1.83Z"/>
<path class="cls-4" d="M32.57,60.19l.32,1.8a2.26,2.26,0,0,0,1.83,1.83l1.8.32-1.8.32a2.26,2.26,0,0,0-1.83,1.83l-.32,1.8-.32-1.8a2.26,2.26,0,0,0-1.83-1.83l-1.8-.32,1.8-.32A2.26,2.26,0,0,0,32.26,62Z"/>
<path class="cls-4" d="M54,117.34a1.75,1.75,0,1,1,1.75-1.75A1.75,1.75,0,0,1,54,117.34Zm0-2.5a.75.75,0,1,0,.75.75.75.75,0,0,0-.75-.75Z"/>
<path class="cls-4" d="M79.23,72.65A1.75,1.75,0,1,1,81,70.9a1.75,1.75,0,0,1-1.77,1.75Zm0-2.5a.75.75,0,1,0,.75.75A.75.75,0,0,0,79.23,70.15Z"/>
<path class="cls-4" d="M161.07,169.84a1.75,1.75,0,1,1,1.75-1.75A1.75,1.75,0,0,1,161.07,169.84Zm0-2.5a.75.75,0,1,0,.75.75A.75.75,0,0,0,161.07,167.34Z"/>
<path class="cls-4" d="M233.09,70.34A1.38,1.38,0,1,1,234.47,69v0A1.38,1.38,0,0,1,233.09,70.34Zm0-1.75a.38.38,0,1,0,.38.38.38.38,0,0,0-.38-.38Z"/>

</svg>